<svg width="212" height="345" viewBox="0 0 212 345" xmlns="http://www.w3.org/2000/svg"><g fill="none" fill-rule="evenodd"><path d="M80.752 306l-1.98 29 1.98-29zM56 325l25-21 25 41z" fill="#656565"/><path fill="#787778" d="M56 263v62l25-21z"/><path fill="#5C5C5C" d="M131 304l-25 41 50-20z"/><path fill="#787778" d="M156 325l-25-21 25-41z"/><path fill="#4A4A4A" d="M56 263h100l-50 82z"/><path fill="#FED12F" d="M66 74l106 44-76 61zm80-74l60 62-34 56zM56 263l110-32-10 32zm-10-32l50-52-40 84zM6 62L66 0v74z"/><path fill="#FFF3CB" d="M96 179l70 52 6-113zm0 0L0 162l46 69z"/><path fill="#FFDD63" d="M66 74l80-74 26 118z"/><path fill="#FFEDAC" d="M0 162l66-88 30 105z"/><path fill="#FFDD63" d="M56 263l40-84 70 52zm110-32l6-113 40 44zM0 162L6 62l60 12z"/><path fill="#FEE382" d="M172 118l34-56 6 100z"/><path fill="#FEF1C0" d="M146 0L66 74V0z"/></g></svg>